<?xml version="1.0" encoding="utf-8"?>
<!-- Generator: Adobe Illustrator 16.0.0, SVG Export Plug-In . SVG Version: 6.00 Build 0)  -->
<!DOCTYPE svg PUBLIC "-//W3C//DTD SVG 1.1//EN" "http://www.w3.org/Graphics/SVG/1.1/DTD/svg11.dtd">
<svg version="1.1" id="oakfull" xmlns="http://www.w3.org/2000/svg" xmlns:xlink="http://www.w3.org/1999/xlink" x="0px" y="0px"
	 width="128px" height="128px" viewBox="0 0 128 128" enable-background="new 0 0 128 128" xml:space="preserve">
<g id="green">
	<path id="stem" fill="#558B2F" d="M75.496,44.853c0,0-0.182,0.224-0.514,0.641c-0.321,0.418-0.856,1.037-1.434,1.829
		c-0.523,0.812-1.229,1.699-1.913,2.886c-0.343,0.589-0.717,1.209-1.102,1.86c-0.363,0.663-0.718,1.39-1.101,2.128
		c-0.396,0.727-0.75,1.528-1.104,2.363c-0.342,0.833-0.77,1.667-1.059,2.576c-0.319,0.898-0.662,1.828-1.006,2.771
		c-0.287,0.962-0.576,1.956-0.865,2.96c-0.319,0.993-0.512,2.053-0.77,3.102c-0.247,1.048-0.503,2.105-0.663,3.207
		c-0.182,1.091-0.385,2.181-0.557,3.282c-0.139,1.111-0.277,2.225-0.417,3.335c-0.161,1.103-0.214,2.233-0.299,3.349
		c-0.064,1.109-0.192,2.224-0.214,3.323c-0.021,2.213-0.16,4.384-0.054,6.489c0.054,2.105,0.086,4.138,0.268,6.072
		c0.149,1.926,0.235,3.752,0.471,5.432c0.192,1.679,0.363,3.218,0.513,4.587c0.214,1.358,0.396,2.544,0.545,3.519
		c0.299,1.945,0.469,3.067,0.469,3.067l0.022,0.118c0.245,1.581-0.846,3.066-2.428,3.303c-1.583,0.246-3.069-0.845-3.304-2.427
		c0-0.021-0.011-0.063-0.011-0.086c0,0-0.149-1.153-0.395-3.187c-0.128-1.016-0.278-2.244-0.46-3.655
		c-0.118-1.423-0.246-3.025-0.385-4.771c-0.171-1.74-0.193-3.645-0.268-5.654c-0.107-2.011-0.054-4.138-0.021-6.328
		c-0.021-2.192,0.213-4.471,0.32-6.769c0.064-1.155,0.235-2.31,0.353-3.475c0.139-1.165,0.235-2.331,0.449-3.485
		c0.193-1.154,0.385-2.32,0.566-3.475c0.235-1.146,0.514-2.289,0.759-3.424c0.235-1.133,0.545-2.243,0.866-3.334
		c0.332-1.092,0.588-2.182,0.984-3.218c0.363-1.048,0.727-2.063,1.08-3.068c0.417-0.983,0.812-1.945,1.208-2.876
		c0.364-0.94,0.855-1.807,1.261-2.673c0.417-0.854,0.834-1.678,1.294-2.448c0.449-0.771,0.854-1.508,1.282-2.202
		c0.448-0.674,0.888-1.305,1.295-1.903c0.79-1.197,1.667-2.181,2.286-3.015c0.664-0.791,1.199-1.337,1.562-1.753
		c0.363-0.396,0.556-0.61,0.556-0.61c0.472-0.513,1.262-0.556,1.774-0.085C75.859,43.59,75.913,44.339,75.496,44.853z"/>
	<g id="leaf2">
		<g>
			
				<linearGradient id="SVGID_1_" gradientUnits="userSpaceOnUse" x1="-837.1851" y1="768.2285" x2="-787.4897" y2="722.3076" gradientTransform="matrix(1 0 0 1 905 -713)">
				<stop  offset="0.0048" style="stop-color:#689F38"/>
				<stop  offset="1" style="stop-color:#9CCC65"/>
			</linearGradient>
			<path fill="url(#SVGID_1_)" d="M128,2.696c0,0-32.223-8.382-50.9,13.631C58.421,38.341,64.035,60.259,64.035,60.259
				S119.309,73.826,128,2.696z"/>
			<g opacity="0.2">
				<path fill="#424242" d="M113.632,4.054c4.726,0,8.69,0.535,11.107,0.952c-2.919,20.356-10.124,35.143-21.457,43.983
					c-9.923,7.74-21.104,9.366-28.749,9.366c-3.465,0-6.275-0.332-7.986-0.609c-0.779-5.421-1.73-22.441,12.777-39.548
					C89.266,6.514,103.464,4.054,113.632,4.054 M113.632,1.125c-10.959,0-25.927,2.705-36.532,15.192
					C58.421,38.33,64.035,60.259,64.035,60.259s4.212,1.036,10.499,1.036c16.476,0,47.17-7.109,53.457-58.599
					C128,2.696,121.971,1.125,113.632,1.125L113.632,1.125z"/>
			</g>
		</g>
		<path opacity="0.2" fill="#33691E" enable-background="new    " d="M67.745,53.47c0,0,0.502-0.866,1.389-2.374
			c0.438-0.759,0.974-1.668,1.658-2.716c0.673-1.037,1.39-2.245,2.267-3.475c0.854-1.251,1.773-2.608,2.822-3.987
			c1.004-1.411,2.159-2.834,3.346-4.309c0.578-0.749,1.24-1.455,1.86-2.191c0.631-0.738,1.272-1.486,1.957-2.203
			c0.673-0.727,1.358-1.454,2.054-2.181c0.715-0.706,1.422-1.422,2.137-2.128c0.707-0.716,1.477-1.379,2.203-2.063
			c0.728-0.684,1.477-1.357,2.233-1.988c1.486-1.305,3.017-2.513,4.491-3.678c1.496-1.134,2.951-2.224,4.373-3.208
			c1.422-0.973,2.759-1.892,4.04-2.683c1.262-0.823,2.438-1.529,3.495-2.139c1.049-0.631,1.969-1.165,2.738-1.571
			c1.527-0.845,2.404-1.326,2.404-1.326s-0.854,0.524-2.341,1.433c-0.748,0.449-1.647,1.026-2.662,1.7
			c-1.026,0.663-2.171,1.422-3.379,2.288c-1.24,0.845-2.533,1.817-3.892,2.854c-1.369,1.037-2.76,2.181-4.191,3.378
			c-1.41,1.22-2.864,2.48-4.275,3.839c-0.728,0.662-1.423,1.347-2.117,2.063c-0.684,0.716-1.41,1.39-2.073,2.127
			c-0.673,0.728-1.349,1.465-2.009,2.192c-0.644,0.748-1.284,1.496-1.916,2.244c-0.642,0.738-1.239,1.497-1.826,2.257
			c-0.578,0.759-1.198,1.475-1.733,2.234c-1.09,1.496-2.159,2.939-3.089,4.372c-0.975,1.4-1.809,2.769-2.588,4.03
			c-0.803,1.252-1.443,2.438-2.042,3.475c-0.599,1.026-1.103,1.968-1.507,2.748c-0.813,1.551-1.284,2.438-1.284,2.438
			c-0.373,0.717-1.261,0.995-1.978,0.61c-0.717-0.386-0.994-1.262-0.609-1.979C67.723,53.512,67.732,53.49,67.745,53.47z"/>
		<!-- flytta löv och skala -->
		<animateTransform id="leaf2-trans" begin="oakfull.click" attributeName="transform" type="translate" dur="0.3s" from="0, 0" to="10, 30" additive="sum"/>
	 	<animateTransform id="leaf2-scale" begin="oakfull.click" attributeName="transform" type="scale" dur="0.3s" from="1,1" to="0.8, 0.6" additive="sum"/> 

		<!-- flytta tillbaka löv och skala -->
		<animateTransform id="leaf2-back" begin="oakfull.click+0.3s" attributeName="transform" type="translate" dur="0.3s" from="10, 30" to="0, 0" additive="sum"/>
		<animateTransform id="leaf2-back" begin="oakfull.click+0.3s" attributeName="transform" type="scale" dur="0.3s" from="0.8, 0.6" to="1,1" additive="sum"/>
	
	</g>
	<g id="leaf1">
		<g>
			
				<linearGradient id="SVGID_2_" gradientUnits="userSpaceOnUse" x1="-898.9868" y1="744.6709" x2="-854.5844" y2="781.8785" gradientTransform="matrix(1 0 0 1 905 -713)">
				<stop  offset="0" style="stop-color:#9CCC65"/>
				<stop  offset="0.9952" style="stop-color:#689F38"/>
			</linearGradient>
			<path fill="url(#SVGID_2_)" d="M0.005,28.762c0,0-0.877,27.712,21.425,40.436c22.302,12.722,38.659,4.19,38.659,4.19
				S64.366,24.229,0.005,28.762z"/>
			<g opacity="0.2">
				<path fill="#424242" d="M8.119,31.392c17.673,0,30.866,4.607,39.227,13.685c8.884,9.644,9.836,21.885,9.857,26.344
					c-2.032,0.737-5.977,1.838-11.269,1.838c-7.624,0-15.385-2.223-23.062-6.606C6.312,57.211,3.49,38.459,3.02,31.52
					C4.752,31.435,6.462,31.392,8.119,31.392 M8.119,28.462c-2.577,0-5.271,0.097-8.114,0.3c0,0-0.877,27.712,21.425,40.436
					c9.525,5.44,17.972,6.99,24.515,6.99c8.777,0,14.145-2.8,14.145-2.8S63.981,28.462,8.119,28.462L8.119,28.462z"/>
			</g>
		</g>
		<path opacity="0.2" fill="#33691E" enable-background="new    " d="M53.739,67.912c0,0-0.46-0.865-1.272-2.372
			c-0.203-0.375-0.428-0.791-0.673-1.252c-0.268-0.427-0.556-0.887-0.856-1.378c-0.609-0.995-1.283-2.117-2.148-3.283
			c-0.417-0.588-0.856-1.208-1.305-1.838c-0.492-0.61-0.994-1.241-1.507-1.883c-1.005-1.325-2.245-2.565-3.442-3.923
			c-1.305-1.251-2.587-2.63-4.062-3.85c-1.412-1.293-2.961-2.448-4.501-3.635c-1.593-1.101-3.165-2.256-4.833-3.197
			c-1.615-1.025-3.304-1.87-4.918-2.726c-0.813-0.417-1.646-0.759-2.438-1.134c-0.802-0.363-1.583-0.727-2.374-1.005
			c-0.78-0.299-1.539-0.599-2.277-0.876c-0.738-0.289-1.476-0.481-2.17-0.717c-0.695-0.225-1.369-0.438-2.01-0.631
			c-0.652-0.171-1.262-0.32-1.839-0.47c-1.155-0.311-2.16-0.557-3.004-0.695c-1.678-0.331-2.641-0.513-2.641-0.513
			s0.973,0.149,2.662,0.405c0.855,0.107,1.871,0.321,3.047,0.578c0.588,0.128,1.208,0.257,1.861,0.396
			c0.652,0.171,1.325,0.363,2.042,0.556c0.706,0.203,1.465,0.374,2.213,0.631c0.759,0.257,1.529,0.513,2.331,0.791
			c0.812,0.257,1.615,0.588,2.438,0.92c0.823,0.342,1.678,0.651,2.512,1.037c1.668,0.791,3.411,1.582,5.1,2.555
			c1.731,0.888,3.378,1.999,5.046,3.047c1.615,1.145,3.25,2.267,4.747,3.518c1.561,1.177,2.93,2.534,4.319,3.774
			c1.283,1.347,2.62,2.565,3.71,3.892c0.566,0.642,1.112,1.271,1.636,1.882c0.492,0.641,0.973,1.251,1.422,1.839
			c0.941,1.165,1.711,2.309,2.384,3.335c0.342,0.514,0.663,0.983,0.962,1.423c0.268,0.448,0.513,0.854,0.728,1.218
			c0.876,1.478,1.379,2.319,1.379,2.319c0.363,0.621,0.161,1.412-0.46,1.785c-0.62,0.375-1.422,0.16-1.785-0.459
			C53.76,67.945,53.75,67.924,53.739,67.912z"/>

	
			<!-- flytta löv och skala -->
		<animateTransform id="leaf1-trans" begin="oakfull.click" attributeName="transform" type="translate" dur="0.3s" from="0, 0" to="12, 40" additive="sum"/>
	 	<animateTransform id="leaf1-scale" begin="oakfull.click" attributeName="transform" type="scale" dur="0.3s" from="1,1" to="0.8, 0.6" additive="sum"/> 

		<!-- flytta tillbaka löv och skala -->
		<animateTransform id="leaf1-back" begin="oakfull.click+0.3s" attributeName="transform" type="translate" dur="0.3s" from="12, 40" to="0, 0" additive="sum"/>
		<animateTransform id="leaf1-back" begin="oakfull.click+0.3s" attributeName="transform" type="scale" dur="0.3s" from="0.8, 0.6" to="1,1" additive="sum"/>
	
	</g>

	<!-- full tree Y move -->
	<animateTransform id="first" begin="oakfull.click" attributeName="transform" type="translate" dur="0.3s" from="0, 0" to="0, 10" additive="sum"/>
	<animateTransform begin="first.end" attributeName="transform" type="translate" dur="0.3s" from="0, 10" to="0, 0" additive="sum"/>

</g>
<g id="dirt">
	
		<linearGradient id="SVGID_3_" gradientUnits="userSpaceOnUse" x1="-841.7573" y1="840.1787" x2="-841.7573" y2="820.5848" gradientTransform="matrix(1 0 0 1 905 -713)">
		<stop  offset="0.0023" style="stop-color:#5D4037"/>
		<stop  offset="1" style="stop-color:#8D6E63"/>
	</linearGradient>
	<path fill="url(#SVGID_3_)" d="M34.986,112.859c5.068-5.314,12.006-10.168,19.202-8.683c5.356,1.112,10.285,5.646,15.555,4.191
		c1.679-0.461,3.153-1.509,4.854-1.884c3.977-0.887,7.771,2.087,10.326,5.261c2.557,3.176,4.779,6.929,8.489,8.628
		c2.288,1.049,4.875,1.177,7.303,1.852c2.427,0.674,5.484,4.649,5.484,4.649l-85.915-0.438c0,0,6.104-4.457,7.516-5.848
		C30.314,118.107,32.56,115.402,34.986,112.859z"/>
	<g opacity="0.2">
		<path fill="#424242" d="M51.515,107.105L51.515,107.105c0.684,0,1.358,0.064,2.021,0.203c1.636,0.344,3.336,1.112,5.132,1.946
			c2.791,1.283,5.677,2.599,8.938,2.599c1.017,0,2.021-0.14,2.982-0.396c1.037-0.288,1.957-0.716,2.771-1.09
			c0.703-0.332,1.367-0.631,1.935-0.76c0.245-0.054,0.491-0.086,0.748-0.086c1.871,0,4.255,1.582,6.383,4.225
			c0.481,0.598,0.961,1.229,1.454,1.892c2.105,2.79,4.5,5.944,8.189,7.646c0.246,0.105,0.479,0.213,0.727,0.309l-63.185-0.318
			c0.171-0.15,0.32-0.289,0.438-0.407c1.55-1.519,2.994-3.121,4.383-4.671c0.931-1.038,1.893-2.106,2.854-3.111
			C40.771,111.438,46.052,107.105,51.515,107.105 M51.515,103.898c-6.222,0-12.092,4.31-16.529,8.961
			c-2.427,2.543-4.672,5.248-7.174,7.719c-1.411,1.39-7.516,5.848-7.516,5.848l85.915,0.438c0,0-3.059-3.966-5.484-4.65
			c-2.427-0.674-5.015-0.802-7.303-1.85c-3.711-1.7-5.934-5.452-8.488-8.63c-2.246-2.788-5.441-5.418-8.885-5.418
			c-0.48,0-0.963,0.053-1.443,0.158c-1.698,0.375-3.176,1.422-4.854,1.883c-0.716,0.192-1.422,0.289-2.127,0.289
			c-4.49,0-8.799-3.519-13.428-4.48C53.29,103.995,52.402,103.898,51.515,103.898L51.515,103.898z"/>
	</g>
</g>
</svg>
